# xmcd
#
# Track frame offsets:
#	150
#	25300
#	46995
#	67728
#	85728
#	105850
#	123430
#	141348
#	164408
#	184165
#
# Disc length: 2703 seconds
#
# Revision: 720910
# Processed by: cddbd v1.5.2PL0 Copyright (c) Steve Scherf et al.
# Submitted via: EZCDAudioConverter 8.0.2.1
#
DISCID=7c0a8d0a
DTITLE=Various Artist - Khiêu Vũ Rumba ChaCha Tango
DYEAR=1992
DGENRE=Pop
TTITLE0=Elvis Phương - Tâm hồn cô đơn
TTITLE1=Ngọc Lan - Nhớ ta thì về
TTITLE2=Kiều Nga - Tiếng mưa rơi
TTITLE3=Lệ Hằng - Kiếp nghèo
TTITLE4=Elvis Phương - Bức tâm thư
TTITLE5=Lệ Hằng - Tình đã bay cao
TTITLE6=Như Mai - Lạnh lùng
TTITLE7=Elvis Phương - Gặp nhau la,f ngơ
TTITLE8=Lệ Hằng - Xóm đêm
TTITLE9=Hằng Nga - Nếu đừng dang dở
EXTD=
EXTT0=
EXTT1=
EXTT2=
EXTT3=
EXTT4=
EXTT5=
EXTT6=
EXTT7=
EXTT8=
EXTT9=
PLAYORDER=
